<svg xmlns="http://www.w3.org/2000/svg" width="44" height="37" viewBox="0 0 44 37"><g><g><path fill="#d40b2b" d="M1.875 28a1.144 1.144 0 0 0-1.298-.098 1.017 1.017 0 0 0-.229.156c-.224.21-.348.494-.348.799 0 .218.073.425.219.616.156.182.535.471.781.637 1.191.89 2.458 1.618 2.471 1.627l.013.007.015.007c.034.017.113.061.215.117C8.621 34.603 15 36.215 21.577 36.215h.15c10.535-.073 21.429-4.316 21.429-11.286 0-2.336-1.517-4.758-4.647-7.407-2.607-2.053-5.672-3.969-8.597-5.733l-.767-.462c-4.755-2.864-9.248-5.57-9.248-7.604 0-1.226 1.461-1.573 4.53-1.573 3.653 0 8.573 1.123 12.476 2.977h.001c.096.029.096.057.176.084h.001c.015.008.268.119.429.163.207.053.49.077.7-.008.248-.088.463-.261.593-.503.135-.251.197-.536.074-.805a1.062 1.062 0 0 0-.422-.547s-.137-.081-.358-.192c-.684-.319-1.31-.59-2.215-.917C31.347.764 26.801 0 21.577 0c-9.846 0-19.78 3.248-19.78 10.501 0 2.335 1.518 4.755 4.642 7.401 2.321 1.892 5.022 3.693 7.632 5.431 4.726 3.147 9.19 6.121 9.19 8.372 0 1.054-1.314 1.583-4.533 1.583-2.541 0-4.176-.288-4.176-.288C9.559 32.213 5.576 30.65 2 28.074c0 0-.07-.074-.125-.074"/></g></g></svg>