<svg xmlns="http://www.w3.org/2000/svg" width="198" height="72" viewBox="0 0 198 72" fill="none"><path d="M17.4684 0L0 10.0178L21.1983 22.0144V48.6667L38.6667 38.8344V12.1821L17.4684 0Z" fill="#0B0C0C"></path><path d="M0 61.2305L18.6667 72V22.6667L0 33.4362V61.2305Z" fill="#0B0C0C"></path><path d="M20.667 72L39.3337 61.4V41.3333L20.667 51.9333V72Z" fill="#0B0C0C"></path><path d="M49.8269 36.5289L55.0106 21.861H58.5657L63.7608 36.5289H60.5039L59.5176 33.5471H53.9555L52.9807 36.5289H49.8269ZM56.7423 25.1294L54.8041 31.0241H58.7033L56.7423 25.1294Z" fill="#0B0C0C"></path><path d="M65.5958 36.5289V21.861H68.4514V36.5289H65.5958Z" fill="#0B0C0C"></path><path d="M77.259 36.5289V21.861H84.3579C85.7723 21.861 86.8771 22.1897 87.6722 22.8472C88.475 23.4971 88.8764 24.4069 88.8764 25.5767C88.8764 26.7923 88.4291 27.7174 87.5346 28.352C87.3893 28.459 87.2249 28.5546 87.0414 28.6387C87.3855 28.7687 87.6913 28.9292 87.9589 29.1204C88.8993 29.7626 89.3695 30.703 89.3695 31.9416C89.3695 33.4401 88.9031 34.5793 87.9704 35.3591C87.0453 36.139 85.692 36.5289 83.9106 36.5289H77.259ZM80.1834 24.384V27.6066H83.6927C84.4573 27.6066 85.0268 27.4651 85.4015 27.1822C85.7837 26.8917 85.9749 26.4597 85.9749 25.8863C85.9749 25.3817 85.7761 25.0071 85.3785 24.7624C84.981 24.5101 84.377 24.384 83.5666 24.384H80.1834ZM80.1834 30.0722V33.9829H83.9106C84.7057 33.9829 85.3021 33.8109 85.6996 33.4668C86.1049 33.1228 86.3075 32.5991 86.3075 31.8957C86.3075 31.2841 86.101 30.8291 85.6882 30.531C85.283 30.2252 84.6713 30.0722 83.8533 30.0722H80.1834Z" fill="#0B0C0C"></path><path d="M94.4041 36.8041C93.3949 36.8041 92.5844 36.5174 91.9728 35.944C91.3611 35.3706 91.0553 34.6137 91.0553 33.6733C91.0553 32.687 91.3306 31.8957 91.881 31.2993C92.4392 30.703 93.2458 30.3284 94.3008 30.1755L96.1931 29.9117C96.6824 29.8429 97.0915 29.732 97.4202 29.5791C97.5578 29.5103 97.6649 29.3918 97.7413 29.2236C97.8178 29.0477 97.8445 28.8681 97.8216 28.6846C97.7834 28.3788 97.6266 28.1417 97.3514 27.9735C97.0303 27.7671 96.5639 27.6639 95.9523 27.6639C95.4018 27.6639 94.9737 27.7977 94.6678 28.0653C94.362 28.3252 94.2015 28.6999 94.1862 29.1892H91.4338C91.4949 27.92 91.9269 26.9682 92.7297 26.3336C93.5401 25.699 94.7214 25.3817 96.2734 25.3817C97.6266 25.3817 98.6932 25.6684 99.473 26.2418C100.253 26.8076 100.643 27.5836 100.643 28.5699V34.6366C100.643 35.1183 100.681 35.4585 100.757 35.6573C100.842 35.8561 101.006 36.009 101.251 36.116V36.5174H98.1542C98.0242 36.0816 97.9401 35.6535 97.9019 35.233L97.8904 35.21C96.9959 36.2727 95.8338 36.8041 94.4041 36.8041ZM97.8445 32.515V31.2764C97.5081 31.4599 97.0685 31.609 96.5257 31.7237L95.4706 31.9186C94.9737 32.0104 94.5952 32.1824 94.3353 32.4347C94.0753 32.6794 93.9453 32.9928 93.9453 33.3751C93.9453 33.8109 94.06 34.1511 94.2894 34.3958C94.5264 34.6404 94.8513 34.7628 95.2642 34.7628C96.1893 34.7628 96.9233 34.4417 97.4661 33.7994C97.5731 33.6695 97.661 33.4821 97.7299 33.2375C97.8063 32.9928 97.8445 32.752 97.8445 32.515Z" fill="#0B0C0C"></path><path d="M103.154 36.5289V25.6684H105.872V27.618C105.979 27.404 106.094 27.1975 106.216 26.9987C106.889 25.9207 107.757 25.3817 108.82 25.3817L109.473 25.3932V28.3176C109.221 28.2947 108.934 28.2832 108.613 28.2832C107.742 28.2832 107.092 28.5011 106.664 28.9369C106.235 29.365 106.021 30.0149 106.021 30.8865V36.5289H103.154Z" fill="#0B0C0C"></path><path d="M113.74 36.8041C112.73 36.8041 111.92 36.5174 111.308 35.944C110.697 35.3706 110.391 34.6137 110.391 33.6733C110.391 32.687 110.666 31.8957 111.217 31.2993C111.775 30.703 112.581 30.3284 113.636 30.1755L115.529 29.9117C116.018 29.8429 116.427 29.732 116.756 29.5791C116.893 29.5103 117 29.3918 117.077 29.2236C117.153 29.0477 117.18 28.8681 117.157 28.6846C117.119 28.3788 116.962 28.1417 116.687 27.9735C116.366 27.7671 115.899 27.6639 115.288 27.6639C114.737 27.6639 114.309 27.7977 114.003 28.0653C113.698 28.3252 113.537 28.6999 113.522 29.1892H110.769C110.83 27.92 111.262 26.9682 112.065 26.3336C112.876 25.699 114.057 25.3817 115.609 25.3817C116.962 25.3817 118.029 25.6684 118.809 26.2418C119.588 26.8076 119.978 27.5836 119.978 28.5699V34.6366C119.978 35.1183 120.017 35.4585 120.093 35.6573C120.177 35.8561 120.341 36.009 120.586 36.116V36.5174H117.49C117.36 36.0816 117.276 35.6535 117.237 35.233L117.226 35.21C116.331 36.2727 115.169 36.8041 113.74 36.8041ZM117.18 32.515V31.2764C116.844 31.4599 116.404 31.609 115.861 31.7237L114.806 31.9186C114.309 32.0104 113.931 32.1824 113.671 32.4347C113.411 32.6794 113.281 32.9928 113.281 33.3751C113.281 33.8109 113.396 34.1511 113.625 34.3958C113.862 34.6404 114.187 34.7628 114.6 34.7628C115.525 34.7628 116.259 34.4417 116.802 33.7994C116.909 33.6695 116.997 33.4821 117.065 33.2375C117.142 32.9928 117.18 32.752 117.18 32.515Z" fill="#0B0C0C"></path><path d="M122.593 36.5289V21.861H125.449V29.7855L129.027 25.6684H132.559L128.637 29.7855L132.651 36.5289H129.256L126.641 31.8613L125.449 33.1113V36.5289H122.593Z" fill="#0B0C0C"></path><path d="M136.493 36.8041C135.483 36.8041 134.673 36.5174 134.061 35.944C133.45 35.3706 133.144 34.6137 133.144 33.6733C133.144 32.687 133.419 31.8957 133.97 31.2993C134.528 30.703 135.334 30.3284 136.389 30.1755L138.282 29.9117C138.771 29.8429 139.18 29.732 139.509 29.5791C139.646 29.5103 139.753 29.3918 139.83 29.2236C139.906 29.0477 139.933 28.8681 139.91 28.6846C139.872 28.3788 139.715 28.1417 139.44 27.9735C139.119 27.7671 138.652 27.6639 138.041 27.6639C137.49 27.6639 137.062 27.7977 136.756 28.0653C136.451 28.3252 136.29 28.6999 136.275 29.1892H133.522C133.583 27.92 134.015 26.9682 134.818 26.3336C135.629 25.699 136.81 25.3817 138.362 25.3817C139.715 25.3817 140.782 25.6684 141.562 26.2418C142.341 26.8076 142.731 27.5836 142.731 28.5699V34.6366C142.731 35.1183 142.77 35.4585 142.846 35.6573C142.93 35.8561 143.095 36.009 143.339 36.116V36.5174H140.243C140.113 36.0816 140.029 35.6535 139.99 35.233L139.979 35.21C139.084 36.2727 137.922 36.8041 136.493 36.8041ZM139.933 32.515V31.2764C139.597 31.4599 139.157 31.609 138.614 31.7237L137.559 31.9186C137.062 32.0104 136.684 32.1824 136.424 32.4347C136.164 32.6794 136.034 32.9928 136.034 33.3751C136.034 33.8109 136.149 34.1511 136.378 34.3958C136.615 34.6404 136.94 34.7628 137.353 34.7628C138.278 34.7628 139.012 34.4417 139.555 33.7994C139.662 33.6695 139.75 33.4821 139.818 33.2375C139.895 32.9928 139.933 32.752 139.933 32.515Z" fill="#0B0C0C"></path><path d="M151.321 36.5289V21.861H157.457C159.123 21.861 160.392 22.2547 161.264 23.0422C162.136 23.822 162.571 24.9574 162.571 26.4483C162.571 28.0309 162.136 29.2351 161.264 30.0608C160.392 30.8788 159.123 31.2879 157.457 31.2879C156.272 31.2802 155.247 31.2879 154.383 31.3108V36.5289H151.321ZM154.383 28.7649H156.941C157.797 28.7649 158.439 28.5775 158.867 28.2029C159.295 27.8206 159.509 27.2472 159.509 26.4827C159.509 25.7869 159.295 25.2632 158.867 24.9115C158.439 24.5598 157.797 24.384 156.941 24.384H154.383V28.7649Z" fill="#0B0C0C"></path><path d="M167.319 36.8041C166.31 36.8041 165.5 36.5174 164.888 35.944C164.276 35.3706 163.971 34.6137 163.971 33.6733C163.971 32.687 164.246 31.8957 164.796 31.2993C165.354 30.703 166.161 30.3284 167.216 30.1755L169.108 29.9117C169.598 29.8429 170.007 29.732 170.335 29.5791C170.473 29.5103 170.58 29.3918 170.657 29.2236C170.733 29.0477 170.76 28.8681 170.737 28.6846C170.699 28.3788 170.542 28.1417 170.267 27.9735C169.946 27.7671 169.479 27.6639 168.868 27.6639C168.317 27.6639 167.889 27.7977 167.583 28.0653C167.277 28.3252 167.117 28.6999 167.101 29.1892H164.349C164.41 27.92 164.842 26.9682 165.645 26.3336C166.455 25.699 167.637 25.3817 169.189 25.3817C170.542 25.3817 171.608 25.6684 172.388 26.2418C173.168 26.8076 173.558 27.5836 173.558 28.5699V34.6366C173.558 35.1183 173.596 35.4585 173.673 35.6573C173.757 35.8561 173.921 36.009 174.166 36.116V36.5174H171.069C170.939 36.0816 170.855 35.6535 170.817 35.233L170.806 35.21C169.911 36.2727 168.749 36.8041 167.319 36.8041ZM170.76 32.515V31.2764C170.423 31.4599 169.984 31.609 169.441 31.7237L168.386 31.9186C167.889 32.0104 167.51 32.1824 167.251 32.4347C166.991 32.6794 166.861 32.9928 166.861 33.3751C166.861 33.8109 166.975 34.1511 167.205 34.3958C167.442 34.6404 167.767 34.7628 168.179 34.7628C169.105 34.7628 169.839 34.4417 170.381 33.7994C170.488 33.6695 170.576 33.4821 170.645 33.2375C170.722 32.9928 170.76 32.752 170.76 32.515Z" fill="#0B0C0C"></path><path d="M185.474 32.5035C185.321 33.8568 184.816 34.9118 183.96 35.6688C183.103 36.4257 181.987 36.8041 180.611 36.8041C178.967 36.8041 177.698 36.3186 176.804 35.3476C175.909 34.369 175.462 32.9737 175.462 31.1617C175.462 29.3956 175.924 27.9927 176.849 26.9529C177.782 25.9054 179.036 25.3817 180.611 25.3817C182.01 25.3817 183.153 25.7678 184.04 26.54C184.935 27.3122 185.412 28.3252 185.474 29.5791H182.549C182.526 29.0439 182.335 28.6119 181.976 28.2832C181.624 27.9468 181.169 27.7786 180.611 27.7786C179.892 27.7786 179.346 28.0691 178.971 28.6502C178.596 29.2236 178.409 30.0608 178.409 31.1617C178.409 32.2397 178.596 33.0616 178.971 33.6274C179.346 34.1855 179.892 34.4646 180.611 34.4646C181.131 34.4646 181.571 34.2849 181.93 33.9256C182.289 33.5662 182.496 33.0922 182.549 32.5035H185.474Z" fill="#0B0C0C"></path><path d="M187.549 36.5289V21.861H190.405V29.7855L193.983 25.6684H197.515L193.593 29.7855L197.607 36.5289H194.212L191.598 31.8613L190.405 33.1113V36.5289H187.549Z" fill="#0B0C0C"></path><path d="M50.9377 46.6766H52.3738C52.8704 46.6766 53.2167 46.5965 53.4128 46.4364C53.6121 46.2731 53.7118 45.9953 53.7118 45.6032C53.7118 45.2275 53.6137 44.9579 53.4177 44.7946C53.2216 44.6279 52.8949 44.5446 52.4375 44.5446H50.9377V46.6766ZM50.085 50.1269V43.7653H52.3983C52.774 43.7653 53.0599 43.7849 53.256 43.8242C53.452 43.8601 53.6268 43.9222 53.7804 44.0104C54.0352 44.1476 54.2313 44.3551 54.3685 44.6328C54.5057 44.9106 54.5743 45.234 54.5743 45.6032C54.5743 45.9594 54.5057 46.2731 54.3685 46.5442C54.2313 46.8154 54.032 47.0311 53.7706 47.1912C53.6203 47.2827 53.4438 47.348 53.2412 47.3872C53.0387 47.4264 52.7038 47.446 52.2365 47.446H50.9377V50.1269H50.085Z" fill="#0B0C0C"></path><path d="M57.4464 43.7604H58.3776L60.6664 50.1171H59.7058L59.0686 48.2253H56.623L55.9368 50.1171H54.9958L57.4464 43.7604ZM57.8826 44.7112L56.9023 47.5H58.804L57.8826 44.7112Z" fill="#0B0C0C"></path><path d="M66.6751 45.7454H65.7733C65.721 45.5167 65.6655 45.3451 65.6066 45.2308C65.5478 45.1164 65.4547 44.9988 65.3273 44.8779C65.0136 44.5838 64.5823 44.4368 64.0334 44.4368C63.3897 44.4368 62.8866 44.6573 62.5239 45.0984C62.1645 45.5395 61.9848 46.1603 61.9848 46.9608C61.9848 47.7254 62.1596 48.3299 62.5092 48.7742C62.8588 49.2153 63.3424 49.4359 63.9599 49.4359C64.4533 49.4359 64.8584 49.2905 65.1754 48.9997C65.4923 48.7089 65.6916 48.2956 65.7733 47.7597H66.6751C66.5934 48.325 66.4121 48.8004 66.1311 49.1859C65.6181 49.8884 64.9025 50.2397 63.9844 50.2397C63.0793 50.2397 62.3654 49.9521 61.8426 49.3771C61.3198 48.7987 61.0585 48.0097 61.0585 47.0098C61.0585 45.8205 61.3934 44.9318 62.0632 44.3437C62.3605 44.0888 62.6578 43.9058 62.9552 43.7947C63.2525 43.6837 63.6037 43.6281 64.0089 43.6281C64.7669 43.6281 65.3861 43.8176 65.8664 44.1966C66.3467 44.5757 66.6163 45.0919 66.6751 45.7454Z" fill="#0B0C0C"></path><path d="M67.8072 43.7506H68.6894V46.8432L71.6938 43.7506H72.87L70.3019 46.3433L72.8602 50.1171H71.8065L69.7039 46.9314L68.6894 47.9018V50.1171H67.8072V43.7506Z" fill="#0B0C0C"></path><path d="M73.6297 43.7604H74.5119V50.1171H73.6297V43.7604Z" fill="#0B0C0C"></path><path d="M76.0018 43.7604H76.9869L79.8982 48.7546V43.7604H80.7902V50.1171H79.7903L76.884 45.0788V50.1171H76.0018V43.7604Z" fill="#0B0C0C"></path><path d="M87.5095 45.7258H86.6077C86.5424 45.5036 86.4787 45.3353 86.4166 45.221C86.3578 45.1033 86.2696 44.9857 86.1519 44.8681C85.8579 44.5806 85.4298 44.4368 84.8678 44.4368C84.2078 44.4368 83.6932 44.6573 83.324 45.0984C82.9581 45.5395 82.7751 46.1603 82.7751 46.9608C82.7751 47.7319 82.9597 48.338 83.3289 48.7791C83.6981 49.217 84.2095 49.4359 84.8629 49.4359C85.5393 49.4359 86.0539 49.1908 86.4068 48.7007C86.5407 48.5243 86.6371 48.3462 86.6959 48.1665C86.7548 47.9835 86.7842 47.7352 86.7842 47.4215H84.7992V46.6962H87.5781V50.0779H87.0194L86.8087 49.3035C86.5179 49.6368 86.2156 49.877 85.902 50.024C85.5916 50.1678 85.2224 50.2397 84.7943 50.2397C83.9023 50.2397 83.19 49.9456 82.6575 49.3575C82.1249 48.7661 81.8586 47.9754 81.8586 46.9853C81.8586 45.9594 82.1314 45.1442 82.6771 44.5397C83.226 43.932 83.9628 43.6281 84.8875 43.6281C85.7729 43.6281 86.4427 43.8862 86.8969 44.4025C87.0668 44.592 87.1942 44.7815 87.2792 44.971C87.3674 45.1605 87.4442 45.4121 87.5095 45.7258Z" fill="#0B0C0C"></path><path d="M93.6359 45.9316C93.9561 45.7323 94.1913 45.5297 94.3416 45.3239C94.4952 45.1148 94.572 44.891 94.572 44.6524C94.572 44.4139 94.4984 44.2211 94.3514 44.0741C94.2044 43.9271 94.01 43.8536 93.7682 43.8536C93.5003 43.8536 93.2911 43.9254 93.1409 44.0692C92.9906 44.213 92.9154 44.4106 92.9154 44.6622C92.9154 44.8452 92.9726 45.0396 93.0869 45.2455C93.2013 45.448 93.3843 45.6768 93.6359 45.9316ZM93.3173 46.7844C92.9023 47.0229 92.6034 47.2582 92.4204 47.4902C92.2407 47.7189 92.1508 47.9786 92.1508 48.2694C92.1508 48.6223 92.2685 48.9147 92.5037 49.1467C92.7422 49.3754 93.0445 49.4898 93.4104 49.4898C93.6816 49.4898 93.943 49.4244 94.1946 49.2937C94.4462 49.1598 94.6847 48.9637 94.9101 48.7056L93.3173 46.7844ZM92.8664 46.2306C92.6083 45.9529 92.4188 45.6898 92.2979 45.4415C92.177 45.1932 92.1165 44.9432 92.1165 44.6916C92.1165 44.2505 92.2668 43.8895 92.5674 43.6085C92.868 43.3242 93.2552 43.1821 93.729 43.1821C94.2256 43.1821 94.6177 43.3112 94.9052 43.5693C95.196 43.8274 95.3414 44.1754 95.3414 44.6132C95.3414 44.9726 95.2401 45.2961 95.0376 45.5836C94.835 45.8712 94.5164 46.144 94.0819 46.4021L95.3414 47.9411C95.4198 47.7973 95.4803 47.6339 95.5228 47.4509C95.5685 47.268 95.6012 47.0572 95.6208 46.8187H96.4099C96.4099 47.152 96.3658 47.4656 96.2775 47.7597C96.1926 48.0505 96.0652 48.3282 95.8953 48.5929L97.1597 50.1122H96.0325L95.3708 49.2986C95.0996 49.6221 94.7892 49.8655 94.4396 50.0289C94.0933 50.1923 93.7126 50.274 93.2977 50.274C92.703 50.274 92.2178 50.091 91.8421 49.725C91.4696 49.3591 91.2833 48.8919 91.2833 48.3233C91.2833 47.8953 91.4059 47.5179 91.6509 47.1912C91.896 46.8644 92.3011 46.5442 92.8664 46.2306Z" fill="#0B0C0C"></path><path d="M101.174 46.6766H102.61C103.106 46.6766 103.453 46.5965 103.649 46.4364C103.848 46.2731 103.948 45.9953 103.948 45.6032C103.948 45.2275 103.85 44.9579 103.654 44.7946C103.458 44.6279 103.131 44.5446 102.673 44.5446H101.174V46.6766ZM100.321 50.1269V43.7653H102.634C103.01 43.7653 103.296 43.7849 103.492 43.8242C103.688 43.8601 103.863 43.9222 104.016 44.0104C104.271 44.1476 104.467 44.3551 104.604 44.6328C104.742 44.9106 104.81 45.234 104.81 45.6032C104.81 45.9594 104.742 46.2731 104.604 46.5442C104.467 46.8154 104.268 47.0311 104.007 47.1912C103.856 47.2827 103.68 47.348 103.477 47.3872C103.275 47.4264 102.94 47.446 102.472 47.446H101.174V50.1269H100.321Z" fill="#0B0C0C"></path><path d="M107.682 43.7604H108.614L110.902 50.1171H109.942L109.305 48.2253H106.859L106.173 50.1171H105.232L107.682 43.7604ZM108.119 44.7112L107.138 47.5H109.04L108.119 44.7112Z" fill="#0B0C0C"></path><path d="M116.911 45.7454H116.009C115.957 45.5167 115.901 45.3451 115.843 45.2308C115.784 45.1164 115.691 44.9988 115.563 44.8779C115.25 44.5838 114.818 44.4368 114.269 44.4368C113.626 44.4368 113.123 44.6573 112.76 45.0984C112.4 45.5395 112.221 46.1603 112.221 46.9608C112.221 47.7254 112.396 48.3299 112.745 48.7742C113.095 49.2153 113.578 49.4359 114.196 49.4359C114.689 49.4359 115.094 49.2905 115.411 48.9997C115.728 48.7089 115.928 48.2956 116.009 47.7597H116.911C116.829 48.325 116.648 48.8004 116.367 49.1859C115.854 49.8884 115.138 50.2397 114.22 50.2397C113.315 50.2397 112.601 49.9521 112.079 49.3771C111.556 48.7987 111.294 48.0097 111.294 47.0098C111.294 45.8205 111.629 44.9318 112.299 44.3437C112.596 44.0888 112.894 43.9058 113.191 43.7947C113.488 43.6837 113.84 43.6281 114.245 43.6281C115.003 43.6281 115.622 43.8176 116.102 44.1966C116.583 44.5757 116.852 45.0919 116.911 45.7454Z" fill="#0B0C0C"></path><path d="M118.043 43.7506H118.925V46.8432L121.93 43.7506H123.106L120.538 46.3433L123.096 50.1171H122.042L119.94 46.9314L118.925 47.9018V50.1171H118.043V43.7506Z" fill="#0B0C0C"></path><path d="M125.63 43.7604H126.561L128.85 50.1171H127.889L127.252 48.2253H124.807L124.121 50.1171H123.18L125.63 43.7604ZM126.066 44.7112L125.086 47.5H126.988L126.066 44.7112Z" fill="#0B0C0C"></path><path d="M134.893 45.7258H133.991C133.926 45.5036 133.862 45.3353 133.8 45.221C133.741 45.1033 133.653 44.9857 133.535 44.8681C133.241 44.5806 132.813 44.4368 132.251 44.4368C131.591 44.4368 131.077 44.6573 130.708 45.0984C130.342 45.5395 130.159 46.1603 130.159 46.9608C130.159 47.7319 130.343 48.338 130.712 48.7791C131.082 49.217 131.593 49.4359 132.246 49.4359C132.923 49.4359 133.437 49.1908 133.79 48.7007C133.924 48.5243 134.021 48.3462 134.079 48.1665C134.138 47.9835 134.168 47.7352 134.168 47.4215H132.183V46.6962H134.962V50.0779H134.403L134.192 49.3035C133.901 49.6368 133.599 49.877 133.286 50.024C132.975 50.1678 132.606 50.2397 132.178 50.2397C131.286 50.2397 130.574 49.9456 130.041 49.3575C129.508 48.7661 129.242 47.9754 129.242 46.9853C129.242 45.9594 129.515 45.1442 130.061 44.5397C130.61 43.932 131.346 43.6281 132.271 43.6281C133.156 43.6281 133.826 43.8862 134.28 44.4025C134.45 44.592 134.578 44.7815 134.663 44.971C134.751 45.1605 134.828 45.4121 134.893 45.7258Z" fill="#0B0C0C"></path><path d="M136.481 43.7604H137.363V50.1171H136.481V43.7604Z" fill="#0B0C0C"></path><path d="M138.853 43.7604H139.838L142.749 48.7546V43.7604H143.641V50.1171H142.642L139.735 45.0788V50.1171H138.853V43.7604Z" fill="#0B0C0C"></path><path d="M150.361 45.7258H149.459C149.394 45.5036 149.33 45.3353 149.268 45.221C149.209 45.1033 149.121 44.9857 149.003 44.8681C148.709 44.5806 148.281 44.4368 147.719 44.4368C147.059 44.4368 146.545 44.6573 146.175 45.0984C145.809 45.5395 145.626 46.1603 145.626 46.9608C145.626 47.7319 145.811 48.338 146.18 48.7791C146.549 49.217 147.061 49.4359 147.714 49.4359C148.391 49.4359 148.905 49.1908 149.258 48.7007C149.392 48.5243 149.488 48.3462 149.547 48.1665C149.606 47.9835 149.635 47.7352 149.635 47.4215H147.651V46.6962H150.429V50.0779H149.871L149.66 49.3035C149.369 49.6368 149.067 49.877 148.753 50.024C148.443 50.1678 148.074 50.2397 147.646 50.2397C146.754 50.2397 146.041 49.9456 145.509 49.3575C144.976 48.7661 144.71 47.9754 144.71 46.9853C144.71 45.9594 144.983 45.1442 145.528 44.5397C146.077 43.932 146.814 43.6281 147.739 43.6281C148.624 43.6281 149.294 43.8862 149.748 44.4025C149.918 44.592 150.046 44.7815 150.13 44.971C150.219 45.1605 150.295 45.4121 150.361 45.7258Z" fill="#0B0C0C"></path><path d="M159.609 45.7454H158.707C158.655 45.5167 158.6 45.3451 158.541 45.2308C158.482 45.1164 158.389 44.9988 158.261 44.8779C157.948 44.5838 157.516 44.4368 156.967 44.4368C156.324 44.4368 155.821 44.6573 155.458 45.0984C155.099 45.5395 154.919 46.1603 154.919 46.9608C154.919 47.7254 155.094 48.3299 155.443 48.7742C155.793 49.2153 156.276 49.4359 156.894 49.4359C157.387 49.4359 157.792 49.2905 158.109 48.9997C158.426 48.7089 158.626 48.2956 158.707 47.7597H159.609C159.527 48.325 159.346 48.8004 159.065 49.1859C158.552 49.8884 157.837 50.2397 156.918 50.2397C156.013 50.2397 155.299 49.9521 154.777 49.3771C154.254 48.7987 153.993 48.0097 153.993 47.0098C153.993 45.8205 154.327 44.9318 154.997 44.3437C155.295 44.0888 155.592 43.9058 155.889 43.7947C156.187 43.6837 156.538 43.6281 156.943 43.6281C157.701 43.6281 158.32 43.8176 158.8 44.1966C159.281 44.5757 159.55 45.0919 159.609 45.7454Z" fill="#0B0C0C"></path><path d="M160.295 47C160.295 45.9643 160.571 45.1442 161.124 44.5397C161.679 43.932 162.437 43.6281 163.398 43.6281C164.335 43.6281 165.08 43.9205 165.633 44.5054C166.185 45.087 166.461 45.8744 166.461 46.8677C166.461 47.9688 166.118 48.8461 165.432 49.4996C164.896 49.993 164.203 50.2397 163.354 50.2397C162.422 50.2397 161.679 49.9472 161.124 49.3624C160.571 48.7775 160.295 47.9901 160.295 47ZM161.222 46.9755C161.222 47.7368 161.414 48.338 161.8 48.7791C162.189 49.217 162.721 49.4359 163.398 49.4359C164.071 49.4359 164.597 49.2121 164.976 48.7644C165.355 48.3168 165.544 47.6878 165.544 46.8775C165.544 46.1097 165.355 45.5118 164.976 45.0837C164.597 44.6524 164.071 44.4368 163.398 44.4368C162.702 44.4368 162.164 44.6573 161.785 45.0984C161.409 45.5395 161.222 46.1652 161.222 46.9755Z" fill="#0B0C0C"></path><path d="M167.333 50.1171V43.7653H168.407L170.396 49.0438L172.327 43.7653H173.401V50.1171H172.621V45.0249L170.764 50.1171H170.048L168.108 45.0249V50.1171H167.333Z" fill="#0B0C0C"></path><path d="M175.474 46.6766H176.91C177.407 46.6766 177.753 46.5965 177.949 46.4364C178.148 46.2731 178.248 45.9953 178.248 45.6032C178.248 45.2275 178.15 44.9579 177.954 44.7946C177.758 44.6279 177.431 44.5446 176.974 44.5446H175.474V46.6766ZM174.621 50.1269V43.7653H176.934C177.31 43.7653 177.596 43.7849 177.792 43.8242C177.988 43.8601 178.163 43.9222 178.317 44.0104C178.571 44.1476 178.767 44.3551 178.905 44.6328C179.042 44.9106 179.111 45.234 179.111 45.6032C179.111 45.9594 179.042 46.2731 178.905 46.5442C178.767 46.8154 178.568 47.0311 178.307 47.1912C178.156 47.2827 177.98 47.348 177.777 47.3872C177.575 47.4264 177.24 47.446 176.773 47.446H175.474V50.1269H174.621Z" fill="#0B0C0C"></path><path d="M181.983 43.7604H182.914L185.203 50.1171H184.242L183.605 48.2253H181.159L180.473 50.1171H179.532L181.983 43.7604ZM182.419 44.7112L181.439 47.5H183.34L182.419 44.7112Z" fill="#0B0C0C"></path><path d="M186.041 43.7604H187.026L189.937 48.7546V43.7604H190.829V50.1171H189.829L186.923 45.0788V50.1171H186.041V43.7604Z" fill="#0B0C0C"></path><path d="M191.584 43.7604H192.691L194.534 46.7746L196.348 43.7604H197.406L194.965 47.6127V50.1171H194.064V47.6127L191.584 43.7604Z" fill="#0B0C0C"></path></svg>