<svg xmlns="http://www.w3.org/2000/svg" xmlns:xlink="http://www.w3.org/1999/xlink" width="191" height="38" viewBox="0 0 191 38">
  <defs>
    <polygon id="logo-a" points="23.678 28.71 23.678 .818 .194 .818 .194 28.71"/>
    <polygon id="logo-c" points="0 .163 0 26.812 23.227 26.812 23.227 .163"/>
    <polygon id="logo-e" points="0 38.628 190.561 38.628 190.561 .986 0 .986"/>
  </defs>
  <g fill="none" fill-rule="evenodd" transform="translate(0 -1)">
    <path fill="#C50E30" d="M133.604898,11.3570505 L127.798065,11.3570505 L127.798065,3.06311249 L125.827761,3.06311249 L125.827761,11.3570505 L125.827761,13.0689538 L125.827761,31.6809671 C125.6214,37.6959563 129.508174,38.2665908 133.552859,38.0063958 L133.552859,36.296287 C129.822202,36.3985705 127.798065,35.9840531 127.798065,31.6809671 L127.798065,13.0689538 L133.604898,13.0689538 L133.604898,11.3570505 Z"/>
    <path fill="#C50E30" d="M2.42120716,13.3131882 C2.83213572,8.02495031 6.30798124,2.52855649 12.220687,2.52855649 C18.3379597,2.52855649 21.8640498,7.71271638 21.9681278,13.3131882 L2.42120716,13.3131882 Z M23.9366371,15.0250914 C24.30091,7.4022769 20.5684584,0.818447673 12.220687,0.818447673 C4.18156052,0.818447673 0.348619873,7.92087233 0.450903401,15.2314529 C0.348619873,22.5940725 4.44354991,28.7113453 12.220687,28.7113453 C18.5461157,28.7113453 22.6930847,25.2893332 23.7302756,19.0679825 L21.7599718,19.0679825 C20.8268589,23.9937419 17.2487299,27.0012365 12.220687,27.0012365 C5.63685774,27.0012365 2.31892363,21.2984812 2.42120716,15.0250914 L23.9366371,15.0250914 Z" transform="translate(137.655 9.917)"/>
    <g transform="translate(166.884 9.917)">
      <mask id="logo-b" fill="#fff">
        <use xlink:href="#logo-a"/>
      </mask>
      <path fill="#C50E30" d="M23.4198775,9.68391736 C22.849243,3.61688912 18.1836786,0.817550449 12.4288843,0.817550449 C4.54587478,0.817550449 0.194338704,7.09094019 0.194338704,14.5055988 C0.194338704,21.9184629 3.7706733,28.7104481 12.4288843,28.7104481 C18.1836786,28.7104481 22.797204,25.0820745 23.678278,18.7046068 L21.7079742,18.7046068 C21.0350562,23.5783272 17.4048882,27.0003393 12.4288843,27.0003393 C5.53282111,27.0003393 2.16284802,21.7121014 2.16284802,14.5055988 C2.16284802,8.43857054 5.73918262,2.52945371 12.4288843,2.52945371 C17.2505657,2.52945371 21.0870952,4.96631392 21.4477793,9.68391736 L23.4198775,9.68391736 Z" mask="url(#logo-b)"/>
    </g>
    <g transform="translate(0 11.194)">
      <mask id="logo-d" fill="#fff">
        <use xlink:href="#logo-c"/>
      </mask>
      <polygon fill="#FFF" points="23.227 .163 21.05 .163 12.028 24.531 11.924 24.531 2.282 .163 0 .163 10.732 26.812 13.169 26.812" mask="url(#logo-d)"/>
    </g>
    <mask id="logo-f" fill="#fff">
      <use xlink:href="#logo-e"/>
    </mask>
    <path fill="#FFF" d="M28.5622267 6.32649538L30.5325305 6.32649538 30.5325305.986218525 28.5622267.986218525 28.5622267 6.32649538zM28.5622267 38.005678L30.5325305 38.005678 30.5325305 11.3563328 28.5622267 11.3563328 28.5622267 38.005678zM37.8420344 29.1411056C37.9981514 35.3624563 42.5614323 38.6283514 48.6266661 38.6283514 53.2922306 38.6283514 59.0488193 37.0223206 59.0488193 31.2675263 59.0488193 25.6670545 54.9000558 24.4235021 49.611818 23.4383502 45.3069375 22.5052374 40.7454511 21.830525 40.7454511 17.579478 40.7454511 13.7949874 44.7883421 12.4473571 48.4185102 12.4473571 52.8777131 12.4473571 56.2494806 14.4158664 56.2997252 19.2393422L58.2700289 19.2393422C58.2700289 13.172314 54.0692265 10.7354538 48.4185102 10.7354538 43.9072682 10.7354538 38.7751473 12.2912401 38.7751473 17.579478 38.7751473 23.0220383 43.3384282 24.2153462 47.9519537 25.1484591 52.5134402 26.081572 57.0767211 26.7562844 57.0767211 31.2675263 57.0767211 35.8810518 52.1007172 36.9182426 48.6266661 36.9182426 43.8049847 36.9182426 40.1227777 34.066865 39.8123382 29.1411056L37.8420344 29.1411056zM87.9252539 19.6011029C87.3546194 13.5340747 82.689055 10.734736 76.9342607 10.734736 69.0530456 10.734736 64.6979207 17.0081258 64.6979207 24.4227843 64.6979207 31.8356485 68.2760497 38.6276337 76.9342607 38.6276337 82.689055 38.6276337 87.3025804 34.9992601 88.1836543 28.6217924L86.2133506 28.6217924C85.5386382 33.4955128 81.912059 36.9175249 76.9342607 36.9175249 70.0381975 36.9175249 66.6682244 31.629287 66.6682244 24.4227843 66.6682244 18.3557561 70.2463535 12.4466393 76.9342607 12.4466393 81.7559421 12.4466393 85.5924716 14.8834995 85.9549501 19.6011029L87.9252539 19.6011029zM95.5868285 24.6822615C95.5868285 18.3047938 99.1631631 12.4477159 105.85107 12.4477159 112.538977 12.4477159 116.118901 18.3047938 116.118901 24.6822615 116.118901 31.0597292 112.538977 36.9186015 105.85107 36.9186015 99.1631631 36.9186015 95.5868285 31.0597292 95.5868285 24.6822615M93.6165247 24.6822615C93.6165247 32.2530371 98.0236887 38.6287103 105.85107 38.6287103 113.680246 38.6287103 118.08741 32.2530371 118.08741 24.6822615 118.08741 17.1132804 113.680246 10.7358127 105.85107 10.7358127 98.0236887 10.7358127 93.6165247 17.1132804 93.6165247 24.6822615" mask="url(#logo-f)"/>
  </g>
</svg>
